<svg id="Capa_2" xmlns="http://www.w3.org/2000/svg" viewBox="0 0 44.45 99.44"><defs><style>.cls-1{fill:#1d1d1b}</style></defs><g id="Capa_1-2"><path class="cls-1" d="M28.16 0H15.61c-2.36 0-4.35 1.77-4.62 4.12L6.27 45.25h31.9l-5.4-41.21A4.642 4.642 0 0 0 28.16 0Z"/><path d="M38.88 49.59c.72 0 1.38.29 1.87.81s.74 1.2.7 1.92l-2.41 41.7a2.583 2.583 0 0 1-2.57 2.43H8.21c-1.35 0-2.48-1.06-2.57-2.41l-2.63-41.7c-.05-.72.2-1.4.69-1.92.49-.52 1.16-.81 1.88-.81h33.3m0-3.02H5.57c-3.21 0-5.76 2.71-5.56 5.92l2.63 41.7a5.57 5.57 0 0 0 5.56 5.22h28.26c2.95 0 5.39-2.3 5.56-5.25l2.41-41.7c.18-3.2-2.36-5.89-5.56-5.89Z"/><path class="cls-1" d="M34.98 54.29H9.48c-1.05 0-1.87.88-1.81 1.93L9.83 90.5c.06.95.85 1.7 1.81 1.7h21.18c.96 0 1.75-.74 1.81-1.7l2.15-34.28c.07-1.04-.76-1.92-1.81-1.92Z"/></g></svg>